Coordinates
version=1
nRows=17
nColumns=36
inDegrees=yes

Units are S.I. units (second, meters, Newtons, ...)
If the header above contains a line with 'inDegrees', this indicates whether rotational values are in degrees (yes) or radians (no).

endheader
time	pelvis_tilt	pelvis_list	pelvis_rotation	pelvis_tx	pelvis_ty	pelvis_tz	hip_flexion_r	hip_adduction_r	hip_rotation_r	knee_angle_r	knee_angle_r_beta	ankle_angle_r	subtalar_angle_r	mtp_angle_r	hip_flexion_l	hip_adduction_l	hip_rotation_l	knee_angle_l	knee_angle_l_beta	ankle_angle_l	subtalar_angle_l	mtp_angle_l	lumbar_extension	lumbar_bending	lumbar_rotation	arm_flex_r	arm_add_r	arm_rot_r	elbow_flex_r	pro_sup_r	arm_flex_l	arm_add_l	arm_rot_l	elbow_flex_l	pro_sup_l
      3.40000000	    -18.80599462	      2.84665880	      0.39974257	      0.10760419	      1.23195212	     -0.01947019	     34.86841362	     -3.46296721	      0.22911680	     70.81792482	      1.23600596	     15.52920968	     -7.71393551	     -7.49999987	     43.47834110	     -5.85341006	     -2.39129719	     62.93480659	      1.09841959	      2.60692210	    -13.06693213	     -7.49999987	    -12.14848085	     -3.97073856	      1.52111789	     91.91605500	    -14.61781743	     16.11558255	     98.09253196	     86.28561705	     83.42947044	    -13.46138542	     24.48185495	     97.59143284	     85.89743039
      3.41666670	    -19.39410205	      2.90657074	     -0.22549003	      0.10900117	      1.22394908	     -0.01953762	     39.00753371	     -4.32809385	     -0.83472897	     69.30072938	      1.20952590	     14.35857453	     -9.01665140	     -7.49999987	     45.79118563	     -6.29076764	     -3.12156113	     58.31551816	      1.01779780	      2.00775052	    -11.33527353	     -7.49999987	    -13.65276742	     -3.79630287	      1.76623586	     92.36045219	    -14.27012756	     16.56168442	     96.67469684	     86.06844475	     83.78132399	    -12.82920186	     24.66686517	     96.45663067	     85.60495928
      3.43333330	    -19.73703256	      2.73030941	      0.62245941	      0.12799179	      1.21251348	     -0.01732099	     42.05680664	     -5.46974514	     -2.31102282	     66.00865822	      1.15206842	     11.01631526	     -7.82186045	     -7.49999987	     46.88224820	     -6.48875403	     -2.94506889	     51.95255658	      0.90674317	     -1.28114704	     -8.23297429	     -7.49999987	    -14.88706495	     -3.40743952	      1.58774241	     91.76998451	    -14.77742219	     16.50106233	     95.28987956	     85.60321399	     83.24027034	    -12.02820425	     25.19314051	     96.28127259	     85.13201286
      3.45000000	    -19.85497356	      2.98879995	      1.46275782	      0.15317005	      1.20392651	     -0.01382734	     42.20275277	     -6.50514700	     -3.56808844	     58.96346420	      1.02910659	      6.40360213	     -9.01288304	     -7.49999987	     45.49243434	     -6.45776275	     -3.42212724	     42.89851312	      0.74872030	     -5.35768359	     -4.14488768	     -7.49999987	    -15.57929454	     -3.69725954	      1.23112303	     88.32124996	    -14.79758790	     15.59780462	     97.84706201	     85.86222561	     80.46452335	    -12.05489403	     25.38934433	     97.32932155	     85.16947741
      3.46666670	    -20.36215420	      3.01790825	      2.29932665	      0.16558201	      1.17284483	     -0.01412595	     43.86917049	     -7.00537870	     -4.20335453	     52.86443514	      0.92265845	      4.70052792	     -8.99593329	     -7.49999987	     46.26443933	     -6.70420574	     -4.29422072	     37.18451177	      0.64899216	     -7.41862520	     -0.54831519	     -7.49999987	    -15.73729686	     -3.23905757	      1.08219430	     88.02416148	    -14.54140570	     15.07622643	     96.10262022	     89.91481421	     79.17739634	    -12.37015796	     24.68480899	     97.86521240	     86.95685972
      3.48333330	    -20.97788529	      3.34028845	      2.25043848	      0.17860310	      1.14921290	     -0.01542611	     46.27178162	     -7.91562649	     -4.03609399	     47.64591485	      0.83157809	      1.87596440	     -8.37970311	     -7.49999987	     47.42687276	     -7.03517635	     -5.55322379	     32.34419869	      0.56451276	    -10.20279903	      2.24129032	     -7.49999987	    -15.64800652	     -3.37648038	      0.82033014	     87.45924477	    -13.92516583	     15.65614315	     95.26830469	     89.98005601	     79.51428381	    -12.49517330	     24.65173670	     97.51430657	     86.84818929
      3.50000000	    -21.46347643	      3.54786267	      2.07812796	      0.19625099	      1.12568158	     -0.02386670	     48.09974245	     -8.79230749	     -4.04275770	     41.24054084	      0.71978322	     -3.03467241	     -6.99915178	     -7.49999987	     48.12584275	     -6.71586743	     -7.00579250	     27.94561460	      0.48774299	    -13.64153282	      3.32743470	     -7.49999987	    -15.45662716	     -2.74082282	      0.72666523	     86.64150145	    -14.21936027	     16.83877822	     95.83109796	     90.42304089	     78.40688722	    -12.73789017	     23.92643353	     98.68884256	     86.90485696
      3.51666670	    -22.51013202	      3.77835291	      2.90898034	      0.21384650	      1.09436842	     -0.02822427	     49.41168892	    -10.49290713	     -5.44462431	     34.03843561	      0.59408277	     -7.34258434	     -5.16072113	     -7.49999987	     49.93260075	     -5.95320975	     -7.69845112	     24.83783751	      0.43350204	    -17.50946241	      2.14184322	     -7.49999987	    -14.73866986	     -2.33056986	      0.02264163	     85.57319992	    -15.69311860	     17.01213405	     97.13843257	     91.02314368	     77.71098435	    -12.91582834	     22.91175728	    100.72589529	     87.17462937
      3.53333330	    -23.27405147	      3.67075990	      4.13795099	      0.23718690	      1.06191242	     -0.02376795	     49.07051944	    -11.48600403	     -6.66225955	     26.92617736	      0.46995045	     -9.27925414	     -3.49662398	     -7.49999987	     50.87914960	     -5.46002716	     -8.50772063	     22.18908887	      0.38727266	    -21.14696750	      0.43202834	     -7.49999987	    -13.84336185	     -2.03457599	     -1.07706649	     83.95473172	    -16.76204241	     16.62136210	     99.74004875	     91.80436797	     77.04714259	    -13.58433017	     22.22355548	    103.25011763	     87.70156762
      3.55000000	    -22.81243379	      3.36137321	      4.75539774	      0.25434545	      1.02674917	     -0.02378418	     48.73251327	    -11.69828676	     -6.73288895	     23.20563373	      0.40501471	    -10.99947856	     -2.56720255	     -7.49999987	     51.55026952	     -5.94902908	    -10.88727067	     21.16054629	      0.36932120	    -23.55689602	      0.81796122	     -7.49999987	    -13.73120818	     -1.56908890	     -2.17373580	     83.48195439	    -16.96903255	     16.33682976	    101.96593048	     92.27274044	     77.96477160	    -13.90590689	     22.38323878	    104.05271542	     88.02133876
      3.56666670	    -22.96379562	      2.89664650	      5.28378696	      0.27575642	      0.99273200	     -0.02595078	     49.12834156	    -11.76799575	     -6.52029900	     20.92727205	      0.36524980	    -13.33538099	     -2.43328899	     -7.49999987	     51.78446416	     -6.15904403	    -11.79988421	     20.34322237	      0.35505621	    -25.18457308	      1.96740742	     -7.49999987	    -13.18136038	     -0.88026261	     -2.59102616	     82.97919368	    -18.03389705	     16.50901984	    105.84735314	     92.83882277	     77.61628394	    -13.67636830	     21.80559553	    105.95194984	     88.43484671
      3.58333330	    -23.02512561	      2.95873690	      4.44327713	      0.28657470	      0.95248051	     -0.03330487	     50.05149743	    -11.54638940	     -5.97940133	     20.26311390	      0.35365805	    -15.56641878	     -1.83601039	     -7.49999987	     51.77438764	     -6.38083670	    -11.84319271	     21.17074845	      0.36949927	    -25.20991240	      1.89548030	     -7.49999987	    -13.17618160	     -0.72593378	     -2.48792042	     84.58219523	    -18.61008558	     16.41936613	    107.55606805	     92.78567333	     79.07227669	    -14.17867990	     21.72559368	    107.40091769	     88.42091593
      3.60000000	    -22.06840228	      4.18227275	      2.34019054	      0.30262443	      0.90781346	     -0.03453810	     50.72307685	    -11.84579842	     -8.91384058	     20.56318457	      0.35889528	    -25.45650590	    -10.03281237	     -7.49999987	     51.60871075	     -6.91311343	    -11.91176844	     24.16175879	      0.42170224	    -24.15964918	      1.67464098	     -7.49999987	    -13.98511937	     -1.79346917	     -2.11895898	     87.32708180	    -17.66386601	     16.57748306	    107.62495066	     92.55592103	     80.98328094	    -14.83335317	     21.33992111	    108.50040866	     88.28702533
      3.61666670	    -22.17299101	      3.25321558	      2.76000721	      0.32331307	      0.86738570	     -0.03233908	     52.71290535	    -11.15881751	     -6.77942532	     25.63130690	      0.44735070	    -18.19832943	    -11.98088398	     -7.49999987	     53.72239274	     -7.60929649	     -9.16930022	     29.55036600	      0.51575118	    -16.71490825	     -0.45759834	     -7.49999987	    -13.95308259	     -0.66730911	     -2.45787151	     89.54148192	    -18.01990205	     16.44171920	    109.59081436	     89.86440863	     82.28013590	    -14.65566517	     21.64348766	    110.14213320	     86.14892924
      3.63333330	    -22.24590996	      2.08340257	      2.56580912	      0.33772533	      0.82898011	     -0.02534603	     56.48078477	     -9.61504961	     -4.74629897	     35.01386932	      0.61110730	     -6.68953036	    -16.48459810	     -7.49999987	     57.16326210	     -9.48503102	     -7.09833409	     38.88406751	      0.67865500	     -5.15632625	     -2.43940334	     -7.49999987	    -13.87407139	      0.18282588	     -2.27874701	     89.99335598	    -18.07401163	     15.74550148	    111.92886629	     87.09598447	     83.16621153	    -15.10923227	     21.59352100	    110.78317734	     84.04914742
      3.65000000	    -22.67845275	      1.19005164	      2.16214350	      0.35117805	      0.77742442	     -0.03124867	     63.73652803	     -8.29398670	     -1.49316449	     49.83888268	      0.86985260	      6.04636442	    -18.24284080	     -7.49999987	     63.73010179	    -11.15687976	     -4.76135419	     52.58232663	      0.91773473	      7.11569583	     -4.31046331	     -7.49999987	    -13.27461097	      0.90667711	     -2.40623169	     90.94877434	    -17.70160142	     14.29097952	    114.41123128	     93.94722529	     83.68332165	    -14.77927612	     20.37246316	    112.60152346	     91.81213512
      3.66666670	    -22.76894635	      0.63937686	      1.64424210	      0.37331686	      0.75306844	     -0.04621322	     69.30162026	     -7.86750859	      0.67995591	     62.85161655	      1.09696765	     16.79016502	    -16.28517434	     -7.49999987	     69.13575599	    -11.22037437	     -1.96227533	     65.23123268	      1.13849979	     15.60871547	     -6.93517084	     -7.49999987	    -13.63097097	      2.04106608	     -2.08473512	     91.22588634	    -17.38125728	     13.46112220	    118.12508881	     93.00873705	     82.44222763	    -13.86848919	     19.48662491	    114.64564487	     91.31483247
